<?xml version="1.0" encoding="UTF-8" standalone="no"?>
<svg
   xmlns:dc="http://purl.org/dc/elements/1.1/"
   xmlns:cc="http://creativecommons.org/ns#"
   xmlns:rdf="http://www.w3.org/1999/02/22-rdf-syntax-ns#"
   xmlns:svg="http://www.w3.org/2000/svg"
   xmlns="http://www.w3.org/2000/svg"
   xmlns:sodipodi="http://sodipodi.sourceforge.net/DTD/sodipodi-0.dtd"
   xmlns:inkscape="http://www.inkscape.org/namespaces/inkscape"
   inkscape:version="1.0 (4035a4fb49, 2020-05-01)"
   sodipodi:docname="undraw_my_documents_ym8x_bg.svg"
   version="1.1"
   viewBox="0 0 758.69702 683.65748"
   height="683.65748"
   width="758.69702"
   data-name="Layer 1"
   id="ab68c390-6f1f-4fbb-b841-490399a425ac">
  <metadata
     id="metadata101">
    <rdf:RDF>
      <cc:Work
         rdf:about="">
        <dc:format>image/svg+xml</dc:format>
        <dc:type
           rdf:resource="http://purl.org/dc/dcmitype/StillImage" />
        <dc:title></dc:title>
      </cc:Work>
    </rdf:RDF>
  </metadata>
  <defs
     id="defs99" />
  <sodipodi:namedview
     inkscape:current-layer="ab68c390-6f1f-4fbb-b841-490399a425ac"
     inkscape:window-maximized="1"
     inkscape:window-y="-9"
     inkscape:window-x="-9"
     inkscape:cy="341.82874"
     inkscape:cx="379.34851"
     inkscape:zoom="1.2871943"
     showgrid="false"
     id="namedview97"
     inkscape:window-height="1051"
     inkscape:window-width="1920"
     inkscape:pageshadow="2"
     inkscape:pageopacity="0"
     guidetolerance="10"
     gridtolerance="10"
     objecttolerance="10"
     borderopacity="1"
     bordercolor="#666666"
     pagecolor="#ffffff" />
  <path
     id="path2"
     fill="#e6e6e6"
     transform="translate(-220.65149 -108.17126)"
     d="M948.76459,379.17126c0,118.6-76.18,219.4-182.28,256.14a272.75829,272.75829,0,0,1-132.97,11.26q-6.345-1.035-12.6-2.38-8.475-1.79994-16.75-4.14c-113.91-32.06-197.4-136.72-197.4-260.88,0-149.67005,121.33-271,271-271S948.76459,229.50121,948.76459,379.17126Z" />
  <ellipse
     id="ellipse34"
     fill="#e6e6e6"
     ry="7"
     rx="122"
     cy="674.15748"
     cx="457.11311" />
  <path
     id="path36"
     fill="#f2f2f2"
     transform="translate(-220.65149 -108.17126)"
     d="M221.39417,430.704a1.001,1.001,0,0,0-.70884,1.22374l27.29015,102.4268a1.001,1.001,0,0,0,1.22374.70883l77.30324-20.59633a1.001,1.001,0,0,0,.70884-1.22375L299.92116,410.81654a1.001,1.001,0,0,0-1.22375-.70884Z" />
  <path
     id="path38"
     fill="#fff"
     transform="translate(-220.65149 -108.17126)"
     d="M240.38956,447.61993c-1.06584.284-1.61327,1.71334-1.221,3.18563s1.57831,2.43979,2.64415,2.15581l50.24711-13.38762c1.06584-.284,1.61328-1.71334,1.221-3.18562s-1.57832-2.43979-2.64416-2.15582Z" />
  <path
     id="path40"
     fill="#fff"
     transform="translate(-220.65149 -108.17126)"
     d="M243.479,459.21542c-1.06584.284-1.61327,1.71334-1.221,3.18562s1.57831,2.43979,2.64415,2.15582l50.24711-13.38762c1.06584-.284,1.61328-1.71334,1.221-3.18563s-1.57832-2.43979-2.64416-2.15581Z" />
  <path
     id="path42"
     fill="#fff"
     transform="translate(-220.65149 -108.17126)"
     d="M246.56846,470.8109c-1.06584.284-1.61327,1.71334-1.221,3.18563s1.57831,2.43979,2.64415,2.15581l50.24711-13.38761c1.06584-.284,1.61328-1.71335,1.221-3.18563s-1.57832-2.43979-2.64416-2.15581Z" />
  <path
     id="path44"
     fill="#fff"
     transform="translate(-220.65149 -108.17126)"
     d="M249.65791,482.40639c-1.06584.284-1.61327,1.71334-1.221,3.18563s1.57831,2.43979,2.64415,2.15581l50.24711-13.38762c1.06584-.284,1.61328-1.71334,1.221-3.18563s-1.57832-2.43979-2.64416-2.15581Z" />
  <path
     id="path46"
     fill="#fff"
     transform="translate(-220.65149 -108.17126)"
     d="M252.74736,494.00188c-1.06584.284-1.61327,1.71334-1.221,3.18562s1.57831,2.43979,2.64415,2.15581l50.24711-13.38761c1.06584-.284,1.61327-1.71334,1.221-3.18563s-1.57832-2.43979-2.64416-2.15581Z" />
  <path
     id="path48"
     fill="#fff"
     transform="translate(-220.65149 -108.17126)"
     d="M255.83681,505.59736c-1.06584.284-1.61327,1.71334-1.221,3.18563s1.57831,2.43979,2.64415,2.15581l50.24711-13.38762c1.06584-.284,1.61327-1.71334,1.221-3.18562s-1.57832-2.43979-2.64416-2.15582Z" />
  <path
     id="path50"
     fill="#f2f2f2"
     transform="translate(-220.65149 -108.17126)"
     d="M418.94811,791.597c0,.12773.44824.2317,1,.2317h106c.55176,0,1-.104,1-.2317v-18.5366c0-.12773-.44824-.23171-1-.23171h-106c-.55176,0-1,.104-1,.23171Z" />
  <path
     id="path52"
     fill="#fff"
     transform="translate(-220.65149 -108.17126)"
     d="M440.18422,788.35313c0,.25558,1.24024.46342,2.76389.46342s2.76389-.20784,2.76389-.46342V776.30434c0-.25557-1.24024-.46341-2.76389-.46341s-2.76389.20784-2.76389.46341Z" />
  <path
     id="path54"
     fill="#fff"
     transform="translate(-220.65149 -108.17126)"
     d="M452.18422,788.35313c0,.25558,1.24024.46342,2.76389.46342s2.76389-.20784,2.76389-.46342V776.30434c0-.25557-1.24024-.46341-2.76389-.46341s-2.76389.20784-2.76389.46341Z" />
  <path
     id="path56"
     fill="#fff"
     transform="translate(-220.65149 -108.17126)"
     d="M464.18422,788.35313c0,.25558,1.24024.46342,2.76389.46342s2.76389-.20784,2.76389-.46342V776.30434c0-.25557-1.24024-.46341-2.76389-.46341s-2.76389.20784-2.76389.46341Z" />
  <path
     id="path58"
     fill="#fff"
     transform="translate(-220.65149 -108.17126)"
     d="M476.18422,788.35313c0,.25558,1.24024.46342,2.76389.46342s2.76389-.20784,2.76389-.46342V776.30434c0-.25557-1.24024-.46341-2.76389-.46341s-2.76389.20784-2.76389.46341Z" />
  <path
     id="path60"
     fill="#fff"
     transform="translate(-220.65149 -108.17126)"
     d="M488.18422,788.35313c0,.25558,1.24024.46342,2.76389.46342s2.76389-.20784,2.76389-.46342V776.30434c0-.25557-1.24024-.46341-2.76389-.46341s-2.76389.20784-2.76389.46341Z" />
  <path
     id="path62"
     fill="#fff"
     transform="translate(-220.65149 -108.17126)"
     d="M500.18422,788.35313c0,.25558,1.24024.46342,2.76389.46342s2.76389-.20784,2.76389-.46342V776.30434c0-.25557-1.24024-.46341-2.76389-.46341s-2.76389.20784-2.76389.46341Z" />
  <path
     id="path64"
     fill="#e6e6e6"
     transform="translate(-220.65149 -108.17126)"
     d="M224.22977,356.78871a1.001,1.001,0,0,0-.41117,1.35312l49.92345,93.50748a1.001,1.001,0,0,0,1.35313.41117l70.57168-37.67807a1.001,1.001,0,0,0,.41117-1.35313L296.15458,319.5218a1.001,1.001,0,0,0-1.35312-.41117Z" />
  <path
     id="path66"
     fill="#fff"
     transform="translate(-220.65149 -108.17126)"
     d="M230.78962,359.5211l45.68506,85.56739L339.107,411.65,293.422,326.08165Zm-3.96875,2.11866.00879-.0044-.00976.00488Z" />
  <path
     id="path68"
     fill="#8e63ff"
     transform="translate(-220.65149 -108.17126)"
     d="M246.58152,368.9284c-.973.5195-1.18017,2.036-.46257,3.3801s2.093,2.0157,3.066,1.4962L295.05656,349.314c.973-.51949,1.18017-2.036.46257-3.3801s-2.093-2.0157-3.066-1.4962Z" />
  <path
     id="path70"
     fill="#8e63ff"
     transform="translate(-220.65149 -108.17126)"
     d="M252.23323,379.51415c-.973.5195-1.18017,2.036-.46257,3.38011s2.093,2.0157,3.066,1.4962l45.87159-24.49075c.973-.5195,1.18017-2.036.46257-3.38011s-2.093-2.0157-3.066-1.4962Z" />
  <path
     id="path72"
     fill="#8e63ff"
     transform="translate(-220.65149 -108.17126)"
     d="M257.88494,390.0999c-.973.5195-1.18017,2.036-.46257,3.38011s2.093,2.0157,3.066,1.4962L306.36,370.48546c.973-.5195,1.18017-2.036.46257-3.38011s-2.093-2.0157-3.066-1.4962Z" />
  <path
     id="path74"
     fill="#8e63ff"
     transform="translate(-220.65149 -108.17126)"
     d="M263.53665,400.68565c-.973.5195-1.18017,2.036-.46257,3.38011s2.093,2.0157,3.066,1.4962l45.87159-24.49075c.973-.5195,1.18017-2.036.46257-3.3801s-2.093-2.0157-3.066-1.4962Z" />
  <path
     id="path76"
     fill="#8e63ff"
     transform="translate(-220.65149 -108.17126)"
     d="M269.18836,411.27141c-.973.5195-1.18017,2.036-.46257,3.3801s2.093,2.0157,3.066,1.4962l45.8716-24.49075c.973-.51949,1.18016-2.036.46256-3.3801s-2.093-2.0157-3.066-1.4962Z" />
  <path
     id="path78"
     fill="#8e63ff"
     transform="translate(-220.65149 -108.17126)"
     d="M274.84007,421.85716c-.973.5195-1.18017,2.036-.46256,3.38011s2.093,2.0157,3.066,1.4962l45.8716-24.49075c.973-.5195,1.18017-2.036.46256-3.38011s-2.093-2.0157-3.066-1.4962Z" />
  <path
     id="path80"
     fill="#e6e6e6"
     transform="translate(-220.65149 -108.17126)"
     d="M909.98433,595.74618a1.001,1.001,0,0,0-1.36967.35216l-53.92761,91.25685a1.001,1.001,0,0,0,.35216,1.36966l68.8731,40.70009a1.001,1.001,0,0,0,1.36966-.35216l53.92761-91.25685a1.001,1.001,0,0,0-.35216-1.36967Z" />
  <path
     id="path82"
     fill="#fff"
     transform="translate(-220.65149 -108.17126)"
     d="M911.06023,602.77043l-49.348,83.50855,61.12415,36.12171,49.34882-83.50906Zm-3.873-2.289.00833.00522-.00925-.0058Z" />
  <path
     id="path84"
     fill="#8e63ff"
     transform="translate(-220.65149 -108.17126)"
     d="M911.23322,621.15115c-.94961-.56117-2.3528.05024-3.12795,1.362s-.63392,2.8358.31569,3.397l44.76751,26.45505c.94961.56117,2.3528-.05023,3.128-1.362s.63392-2.83581-.31569-3.397Z" />
  <path
     id="path86"
     fill="#8e63ff"
     transform="translate(-220.65149 -108.17126)"
     d="M905.12821,631.48211c-.94961-.56116-2.3528.05024-3.128,1.362s-.63391,2.83581.3157,3.397l44.76751,26.45506c.94961.56116,2.3528-.05024,3.128-1.362s.63391-2.8358-.3157-3.397Z" />
  <path
     id="path88"
     fill="#8e63ff"
     transform="translate(-220.65149 -108.17126)"
     d="M899.0232,641.81308c-.94961-.56117-2.3528.05024-3.128,1.362s-.63392,2.8358.3157,3.397l44.76751,26.45505c.94961.56117,2.3528-.05024,3.128-1.362s.63391-2.8358-.3157-3.397Z" />
  <path
     id="path90"
     fill="#8e63ff"
     transform="translate(-220.65149 -108.17126)"
     d="M892.91819,652.144c-.94962-.56116-2.35281.05024-3.128,1.362s-.63392,2.83581.31569,3.397L934.87343,683.358c.94962.56116,2.35281-.05024,3.128-1.362s.63392-2.83581-.31569-3.397Z" />
  <path
     id="path92"
     fill="#8e63ff"
     transform="translate(-220.65149 -108.17126)"
     d="M886.81317,662.475c-.94961-.56117-2.3528.05023-3.128,1.362s-.63391,2.83581.3157,3.397l44.76751,26.455c.94961.56117,2.3528-.05024,3.128-1.362s.63392-2.8358-.3157-3.397Z" />
  <path
     id="path94"
     fill="#8e63ff"
     transform="translate(-220.65149 -108.17126)"
     d="M880.70816,672.806c-.94961-.56117-2.3528.05024-3.128,1.362s-.63391,2.8358.3157,3.397l44.76751,26.455c.94961.56117,2.3528-.05023,3.128-1.362s.63391-2.83581-.3157-3.397Z" />
</svg>
